<mxfile host="app.diagrams.net" modified="2024-06-01T11:23:30.193Z" agent="Mozilla/5.0 (Macintosh; Intel Mac OS X 10_15_7) AppleWebKit/537.36 (KHTML, like Gecko) Chrome/125.0.0.0 Safari/537.36" etag="JpNuiT33mDWlS9435ATn" version="24.4.9" type="device">
  <diagram name="Page-1" id="FIn7hWFJmD5jIfGe47VH">
    <mxGraphModel dx="1276" dy="637" grid="1" gridSize="10" guides="1" tooltips="1" connect="1" arrows="1" fold="1" page="1" pageScale="1" pageWidth="827" pageHeight="1169" math="0" shadow="0">
      <root>
        <mxCell id="0" />
        <mxCell id="1" parent="0" />
        <mxCell id="GWwVKUx4RchNC6RiCY4U-34" value="" style="group" vertex="1" connectable="0" parent="1">
          <mxGeometry x="310" y="50" width="270" height="190" as="geometry" />
        </mxCell>
        <mxCell id="GWwVKUx4RchNC6RiCY4U-8" style="edgeStyle=orthogonalEdgeStyle;rounded=0;orthogonalLoop=1;jettySize=auto;html=1;" edge="1" parent="GWwVKUx4RchNC6RiCY4U-34" source="GWwVKUx4RchNC6RiCY4U-1" target="GWwVKUx4RchNC6RiCY4U-2">
          <mxGeometry relative="1" as="geometry">
            <mxPoint x="210" y="190" as="targetPoint" />
            <Array as="points">
              <mxPoint x="210" y="190" />
              <mxPoint x="15" y="190" />
            </Array>
          </mxGeometry>
        </mxCell>
        <mxCell id="GWwVKUx4RchNC6RiCY4U-9" value="Response&lt;div&gt;&lt;br&gt;&lt;/div&gt;" style="edgeLabel;html=1;align=center;verticalAlign=middle;resizable=0;points=[];" vertex="1" connectable="0" parent="GWwVKUx4RchNC6RiCY4U-8">
          <mxGeometry x="-0.0626" relative="1" as="geometry">
            <mxPoint as="offset" />
          </mxGeometry>
        </mxCell>
        <mxCell id="GWwVKUx4RchNC6RiCY4U-1" value="VendingMachine" style="rounded=0;whiteSpace=wrap;html=1;" vertex="1" parent="GWwVKUx4RchNC6RiCY4U-34">
          <mxGeometry x="150" width="120" height="60" as="geometry" />
        </mxCell>
        <mxCell id="GWwVKUx4RchNC6RiCY4U-7" style="edgeStyle=orthogonalEdgeStyle;rounded=0;orthogonalLoop=1;jettySize=auto;html=1;exitX=0.5;exitY=0.5;exitDx=0;exitDy=0;exitPerimeter=0;entryX=0;entryY=0.5;entryDx=0;entryDy=0;" edge="1" parent="GWwVKUx4RchNC6RiCY4U-34" source="GWwVKUx4RchNC6RiCY4U-2" target="GWwVKUx4RchNC6RiCY4U-1">
          <mxGeometry relative="1" as="geometry" />
        </mxCell>
        <mxCell id="GWwVKUx4RchNC6RiCY4U-10" value="Input" style="edgeLabel;html=1;align=center;verticalAlign=middle;resizable=0;points=[];" vertex="1" connectable="0" parent="GWwVKUx4RchNC6RiCY4U-7">
          <mxGeometry x="-0.0262" y="-2" relative="1" as="geometry">
            <mxPoint as="offset" />
          </mxGeometry>
        </mxCell>
        <mxCell id="GWwVKUx4RchNC6RiCY4U-2" value="User" style="shape=umlActor;verticalLabelPosition=bottom;verticalAlign=top;html=1;outlineConnect=0;" vertex="1" parent="GWwVKUx4RchNC6RiCY4U-34">
          <mxGeometry width="30" height="60" as="geometry" />
        </mxCell>
        <mxCell id="GWwVKUx4RchNC6RiCY4U-35" value="" style="group" vertex="1" connectable="0" parent="1">
          <mxGeometry x="200" y="340" width="460" height="290" as="geometry" />
        </mxCell>
        <mxCell id="GWwVKUx4RchNC6RiCY4U-14" style="edgeStyle=orthogonalEdgeStyle;rounded=0;orthogonalLoop=1;jettySize=auto;html=1;exitX=1;exitY=0.5;exitDx=0;exitDy=0;" edge="1" parent="GWwVKUx4RchNC6RiCY4U-35" source="GWwVKUx4RchNC6RiCY4U-11" target="GWwVKUx4RchNC6RiCY4U-12">
          <mxGeometry relative="1" as="geometry" />
        </mxCell>
        <mxCell id="GWwVKUx4RchNC6RiCY4U-15" value="Insert Money" style="edgeLabel;html=1;align=center;verticalAlign=middle;resizable=0;points=[];" vertex="1" connectable="0" parent="GWwVKUx4RchNC6RiCY4U-14">
          <mxGeometry x="-0.1526" y="1" relative="1" as="geometry">
            <mxPoint as="offset" />
          </mxGeometry>
        </mxCell>
        <mxCell id="GWwVKUx4RchNC6RiCY4U-11" value="Idle" style="rounded=1;whiteSpace=wrap;html=1;" vertex="1" parent="GWwVKUx4RchNC6RiCY4U-35">
          <mxGeometry y="70" width="120" height="60" as="geometry" />
        </mxCell>
        <mxCell id="GWwVKUx4RchNC6RiCY4U-16" style="edgeStyle=orthogonalEdgeStyle;rounded=0;orthogonalLoop=1;jettySize=auto;html=1;exitX=0.5;exitY=1;exitDx=0;exitDy=0;" edge="1" parent="GWwVKUx4RchNC6RiCY4U-35" source="GWwVKUx4RchNC6RiCY4U-12" target="GWwVKUx4RchNC6RiCY4U-13">
          <mxGeometry relative="1" as="geometry" />
        </mxCell>
        <mxCell id="GWwVKUx4RchNC6RiCY4U-17" value="Select Product" style="edgeLabel;html=1;align=center;verticalAlign=middle;resizable=0;points=[];" vertex="1" connectable="0" parent="GWwVKUx4RchNC6RiCY4U-16">
          <mxGeometry x="-0.0509" relative="1" as="geometry">
            <mxPoint as="offset" />
          </mxGeometry>
        </mxCell>
        <mxCell id="GWwVKUx4RchNC6RiCY4U-19" style="edgeStyle=orthogonalEdgeStyle;rounded=0;orthogonalLoop=1;jettySize=auto;html=1;exitX=1;exitY=0.5;exitDx=0;exitDy=0;entryX=0.5;entryY=0;entryDx=0;entryDy=0;" edge="1" parent="GWwVKUx4RchNC6RiCY4U-35" source="GWwVKUx4RchNC6RiCY4U-12" target="GWwVKUx4RchNC6RiCY4U-11">
          <mxGeometry relative="1" as="geometry">
            <Array as="points">
              <mxPoint x="410" y="100" />
              <mxPoint x="410" />
              <mxPoint x="60" />
            </Array>
          </mxGeometry>
        </mxCell>
        <mxCell id="GWwVKUx4RchNC6RiCY4U-20" value="Refund/Cancel" style="edgeLabel;html=1;align=center;verticalAlign=middle;resizable=0;points=[];" vertex="1" connectable="0" parent="GWwVKUx4RchNC6RiCY4U-19">
          <mxGeometry x="-0.1388" y="-3" relative="1" as="geometry">
            <mxPoint x="-67" y="3" as="offset" />
          </mxGeometry>
        </mxCell>
        <mxCell id="GWwVKUx4RchNC6RiCY4U-12" value="HasMoney" style="rounded=1;whiteSpace=wrap;html=1;" vertex="1" parent="GWwVKUx4RchNC6RiCY4U-35">
          <mxGeometry x="270" y="70" width="120" height="60" as="geometry" />
        </mxCell>
        <mxCell id="GWwVKUx4RchNC6RiCY4U-23" style="edgeStyle=orthogonalEdgeStyle;rounded=0;orthogonalLoop=1;jettySize=auto;html=1;exitX=0;exitY=0.5;exitDx=0;exitDy=0;entryX=1;entryY=0.5;entryDx=0;entryDy=0;" edge="1" parent="GWwVKUx4RchNC6RiCY4U-35" source="GWwVKUx4RchNC6RiCY4U-13" target="GWwVKUx4RchNC6RiCY4U-27">
          <mxGeometry relative="1" as="geometry">
            <mxPoint x="120" y="260" as="targetPoint" />
          </mxGeometry>
        </mxCell>
        <mxCell id="GWwVKUx4RchNC6RiCY4U-24" value="dispense product button" style="edgeLabel;html=1;align=center;verticalAlign=middle;resizable=0;points=[];" vertex="1" connectable="0" parent="GWwVKUx4RchNC6RiCY4U-23">
          <mxGeometry x="0.2751" y="-2" relative="1" as="geometry">
            <mxPoint x="25" y="2" as="offset" />
          </mxGeometry>
        </mxCell>
        <mxCell id="GWwVKUx4RchNC6RiCY4U-32" style="edgeStyle=orthogonalEdgeStyle;rounded=0;orthogonalLoop=1;jettySize=auto;html=1;exitX=0.5;exitY=1;exitDx=0;exitDy=0;entryX=0;entryY=0.5;entryDx=0;entryDy=0;" edge="1" parent="GWwVKUx4RchNC6RiCY4U-35" source="GWwVKUx4RchNC6RiCY4U-13" target="GWwVKUx4RchNC6RiCY4U-11">
          <mxGeometry relative="1" as="geometry" />
        </mxCell>
        <mxCell id="GWwVKUx4RchNC6RiCY4U-33" value="Refund/cancel" style="edgeLabel;html=1;align=center;verticalAlign=middle;resizable=0;points=[];" vertex="1" connectable="0" parent="GWwVKUx4RchNC6RiCY4U-32">
          <mxGeometry x="-0.4179" relative="1" as="geometry">
            <mxPoint as="offset" />
          </mxGeometry>
        </mxCell>
        <mxCell id="GWwVKUx4RchNC6RiCY4U-13" value="Selection State" style="rounded=1;whiteSpace=wrap;html=1;" vertex="1" parent="GWwVKUx4RchNC6RiCY4U-35">
          <mxGeometry x="270" y="230" width="120" height="60" as="geometry" />
        </mxCell>
        <mxCell id="GWwVKUx4RchNC6RiCY4U-28" style="edgeStyle=orthogonalEdgeStyle;rounded=0;orthogonalLoop=1;jettySize=auto;html=1;exitX=0.5;exitY=0;exitDx=0;exitDy=0;entryX=0.5;entryY=1;entryDx=0;entryDy=0;" edge="1" parent="GWwVKUx4RchNC6RiCY4U-35" source="GWwVKUx4RchNC6RiCY4U-27" target="GWwVKUx4RchNC6RiCY4U-11">
          <mxGeometry relative="1" as="geometry" />
        </mxCell>
        <mxCell id="GWwVKUx4RchNC6RiCY4U-27" value="Dispense Product" style="rounded=1;whiteSpace=wrap;html=1;" vertex="1" parent="GWwVKUx4RchNC6RiCY4U-35">
          <mxGeometry y="230" width="120" height="60" as="geometry" />
        </mxCell>
        <mxCell id="GWwVKUx4RchNC6RiCY4U-29" style="edgeStyle=orthogonalEdgeStyle;rounded=0;orthogonalLoop=1;jettySize=auto;html=1;exitX=0.5;exitY=0;exitDx=0;exitDy=0;entryX=0.75;entryY=1;entryDx=0;entryDy=0;" edge="1" parent="GWwVKUx4RchNC6RiCY4U-35" source="GWwVKUx4RchNC6RiCY4U-12" target="GWwVKUx4RchNC6RiCY4U-12">
          <mxGeometry relative="1" as="geometry">
            <Array as="points">
              <mxPoint x="330" y="50" />
              <mxPoint x="460" y="50" />
              <mxPoint x="460" y="150" />
              <mxPoint x="360" y="150" />
            </Array>
          </mxGeometry>
        </mxCell>
        <mxCell id="GWwVKUx4RchNC6RiCY4U-92" value="Insert Money" style="edgeLabel;html=1;align=center;verticalAlign=middle;resizable=0;points=[];" vertex="1" connectable="0" parent="GWwVKUx4RchNC6RiCY4U-29">
          <mxGeometry x="0.0398" y="-1" relative="1" as="geometry">
            <mxPoint as="offset" />
          </mxGeometry>
        </mxCell>
        <mxCell id="GWwVKUx4RchNC6RiCY4U-31" style="edgeStyle=orthogonalEdgeStyle;rounded=0;orthogonalLoop=1;jettySize=auto;html=1;exitX=0.75;exitY=0;exitDx=0;exitDy=0;entryX=0.75;entryY=1;entryDx=0;entryDy=0;" edge="1" parent="GWwVKUx4RchNC6RiCY4U-35" source="GWwVKUx4RchNC6RiCY4U-13" target="GWwVKUx4RchNC6RiCY4U-13">
          <mxGeometry relative="1" as="geometry" />
        </mxCell>
        <mxCell id="GWwVKUx4RchNC6RiCY4U-93" value="select product" style="edgeLabel;html=1;align=center;verticalAlign=middle;resizable=0;points=[];" vertex="1" connectable="0" parent="GWwVKUx4RchNC6RiCY4U-31">
          <mxGeometry x="0.0031" relative="1" as="geometry">
            <mxPoint x="30" as="offset" />
          </mxGeometry>
        </mxCell>
        <mxCell id="GWwVKUx4RchNC6RiCY4U-84" value="Idle" style="swimlane;fontStyle=0;childLayout=stackLayout;horizontal=1;startSize=30;horizontalStack=0;resizeParent=1;resizeParentMax=0;resizeLast=0;collapsible=1;marginBottom=0;whiteSpace=wrap;html=1;" vertex="1" parent="1">
          <mxGeometry x="160" y="720" width="140" height="60" as="geometry" />
        </mxCell>
        <mxCell id="GWwVKUx4RchNC6RiCY4U-85" value="Insert Money" style="text;strokeColor=none;fillColor=none;align=left;verticalAlign=middle;spacingLeft=4;spacingRight=4;overflow=hidden;points=[[0,0.5],[1,0.5]];portConstraint=eastwest;rotatable=0;whiteSpace=wrap;html=1;" vertex="1" parent="GWwVKUx4RchNC6RiCY4U-84">
          <mxGeometry y="30" width="140" height="30" as="geometry" />
        </mxCell>
        <mxCell id="GWwVKUx4RchNC6RiCY4U-88" value="HasMoney" style="swimlane;fontStyle=0;childLayout=stackLayout;horizontal=1;startSize=26;fillColor=none;horizontalStack=0;resizeParent=1;resizeParentMax=0;resizeLast=0;collapsible=1;marginBottom=0;html=1;" vertex="1" parent="1">
          <mxGeometry x="320" y="720" width="140" height="104" as="geometry" />
        </mxCell>
        <mxCell id="GWwVKUx4RchNC6RiCY4U-89" value="Refund/Cancel" style="text;strokeColor=none;fillColor=none;align=left;verticalAlign=top;spacingLeft=4;spacingRight=4;overflow=hidden;rotatable=0;points=[[0,0.5],[1,0.5]];portConstraint=eastwest;whiteSpace=wrap;html=1;" vertex="1" parent="GWwVKUx4RchNC6RiCY4U-88">
          <mxGeometry y="26" width="140" height="26" as="geometry" />
        </mxCell>
        <mxCell id="GWwVKUx4RchNC6RiCY4U-90" value="Insert Money" style="text;strokeColor=none;fillColor=none;align=left;verticalAlign=top;spacingLeft=4;spacingRight=4;overflow=hidden;rotatable=0;points=[[0,0.5],[1,0.5]];portConstraint=eastwest;whiteSpace=wrap;html=1;" vertex="1" parent="GWwVKUx4RchNC6RiCY4U-88">
          <mxGeometry y="52" width="140" height="26" as="geometry" />
        </mxCell>
        <mxCell id="GWwVKUx4RchNC6RiCY4U-91" value="Select Product" style="text;strokeColor=none;fillColor=none;align=left;verticalAlign=top;spacingLeft=4;spacingRight=4;overflow=hidden;rotatable=0;points=[[0,0.5],[1,0.5]];portConstraint=eastwest;whiteSpace=wrap;html=1;" vertex="1" parent="GWwVKUx4RchNC6RiCY4U-88">
          <mxGeometry y="78" width="140" height="26" as="geometry" />
        </mxCell>
        <mxCell id="GWwVKUx4RchNC6RiCY4U-94" value="SelectionState" style="swimlane;fontStyle=0;childLayout=stackLayout;horizontal=1;startSize=26;fillColor=none;horizontalStack=0;resizeParent=1;resizeParentMax=0;resizeLast=0;collapsible=1;marginBottom=0;html=1;" vertex="1" parent="1">
          <mxGeometry x="480" y="720" width="140" height="130" as="geometry" />
        </mxCell>
        <mxCell id="GWwVKUx4RchNC6RiCY4U-95" value="Refund/Cancel" style="text;strokeColor=none;fillColor=none;align=left;verticalAlign=top;spacingLeft=4;spacingRight=4;overflow=hidden;rotatable=0;points=[[0,0.5],[1,0.5]];portConstraint=eastwest;whiteSpace=wrap;html=1;" vertex="1" parent="GWwVKUx4RchNC6RiCY4U-94">
          <mxGeometry y="26" width="140" height="26" as="geometry" />
        </mxCell>
        <mxCell id="GWwVKUx4RchNC6RiCY4U-96" value="Dispense product" style="text;strokeColor=none;fillColor=none;align=left;verticalAlign=top;spacingLeft=4;spacingRight=4;overflow=hidden;rotatable=0;points=[[0,0.5],[1,0.5]];portConstraint=eastwest;whiteSpace=wrap;html=1;" vertex="1" parent="GWwVKUx4RchNC6RiCY4U-94">
          <mxGeometry y="52" width="140" height="26" as="geometry" />
        </mxCell>
        <mxCell id="GWwVKUx4RchNC6RiCY4U-97" value="Choose Product" style="text;strokeColor=none;fillColor=none;align=left;verticalAlign=top;spacingLeft=4;spacingRight=4;overflow=hidden;rotatable=0;points=[[0,0.5],[1,0.5]];portConstraint=eastwest;whiteSpace=wrap;html=1;" vertex="1" parent="GWwVKUx4RchNC6RiCY4U-94">
          <mxGeometry y="78" width="140" height="52" as="geometry" />
        </mxCell>
        <mxCell id="GWwVKUx4RchNC6RiCY4U-98" value="Dispense Product" style="swimlane;fontStyle=0;childLayout=stackLayout;horizontal=1;startSize=26;fillColor=none;horizontalStack=0;resizeParent=1;resizeParentMax=0;resizeLast=0;collapsible=1;marginBottom=0;html=1;" vertex="1" parent="1">
          <mxGeometry x="640" y="720" width="140" height="52" as="geometry" />
        </mxCell>
        <mxCell id="GWwVKUx4RchNC6RiCY4U-100" value="Dispense product" style="text;strokeColor=none;fillColor=none;align=left;verticalAlign=top;spacingLeft=4;spacingRight=4;overflow=hidden;rotatable=0;points=[[0,0.5],[1,0.5]];portConstraint=eastwest;whiteSpace=wrap;html=1;" vertex="1" parent="GWwVKUx4RchNC6RiCY4U-98">
          <mxGeometry y="26" width="140" height="26" as="geometry" />
        </mxCell>
        <mxCell id="GWwVKUx4RchNC6RiCY4U-103" value="Return change" style="text;strokeColor=none;fillColor=none;align=left;verticalAlign=top;spacingLeft=4;spacingRight=4;overflow=hidden;rotatable=0;points=[[0,0.5],[1,0.5]];portConstraint=eastwest;whiteSpace=wrap;html=1;" vertex="1" parent="1">
          <mxGeometry x="480" y="824" width="140" height="26" as="geometry" />
        </mxCell>
      </root>
    </mxGraphModel>
  </diagram>
</mxfile>
